{
    "asset" : {
        "generator" : "Khronos glTF Blender I/O v1.8.19",
        "version" : "2.0"
    },
    "extensionsUsed" : [
        "KHR_materials_transmission"
    ],
    "scene" : 0,
    "scenes" : [
        {
            "name" : "Scene",
            "nodes" : [
                0,
                1,
                2
            ]
        }
    ],
    "nodes" : [
        {
            "mesh" : 0,
            "name" : "cd",
            "rotation" : [
                0,
                0,
                -0.7071067690849304,
                0.7071068286895752
            ]
        },
        {
            "mesh" : 1,
            "name" : "ring",
            "rotation" : [
                0,
                0,
                -0.7071067690849304,
                0.7071068286895752
            ]
        },
        {
            "mesh" : 2,
            "name" : "line",
            "rotation" : [
                0,
                0,
                -0.7071067690849304,
                0.7071068286895752
            ]
        }
    ],
    "materials" : [
        {
            "doubleSided" : true,
            "name" : "front",
            "pbrMetallicRoughness" : {
                "metallicFactor" : 0,
                "roughnessFactor" : 0.5
            }
        },
        {
            "doubleSided" : true,
            "name" : "back",
            "pbrMetallicRoughness" : {
                "baseColorFactor" : [
                    0.23301491141319275,
                    0.23301491141319275,
                    0.23301491141319275,
                    1
                ],
                "metallicFactor" : 0,
                "roughnessFactor" : 0.5
            }
        },
        {
            "doubleSided" : true,
            "name" : "side",
            "pbrMetallicRoughness" : {
                "metallicFactor" : 0,
                "roughnessFactor" : 0.5
            }
        },
        {
            "doubleSided" : true,
            "extensions" : {
                "KHR_materials_transmission" : {
                    "transmissionFactor" : 1
                }
            },
            "name" : "ring",
            "pbrMetallicRoughness" : {
                "metallicFactor" : 0,
                "roughnessFactor" : 0.30000001192092896
            }
        },
        {
            "doubleSided" : true,
            "extensions" : {
                "KHR_materials_transmission" : {
                    "transmissionFactor" : 0.800000011920929
                }
            },
            "name" : "line",
            "pbrMetallicRoughness" : {
                "metallicFactor" : 0,
                "roughnessFactor" : 0
            }
        }
    ],
    "meshes" : [
        {
            "name" : "cd",
            "primitives" : [
                {
                    "attributes" : {
                        "POSITION" : 0,
                        "NORMAL" : 1,
                        "TEXCOORD_0" : 2
                    },
                    "indices" : 3,
                    "material" : 0
                },
                {
                    "attributes" : {
                        "POSITION" : 4,
                        "NORMAL" : 5,
                        "TEXCOORD_0" : 6
                    },
                    "indices" : 7,
                    "material" : 1
                },
                {
                    "attributes" : {
                        "POSITION" : 8,
                        "NORMAL" : 9,
                        "TEXCOORD_0" : 10
                    },
                    "indices" : 11,
                    "material" : 2
                }
            ]
        },
        {
            "name" : "ring",
            "primitives" : [
                {
                    "attributes" : {
                        "POSITION" : 12,
                        "NORMAL" : 13,
                        "TEXCOORD_0" : 14
                    },
                    "indices" : 15,
                    "material" : 3
                }
            ]
        },
        {
            "name" : "line",
            "primitives" : [
                {
                    "attributes" : {
                        "POSITION" : 16,
                        "NORMAL" : 17,
                        "TEXCOORD_0" : 18
                    },
                    "indices" : 19,
                    "material" : 4
                }
            ]
        }
    ],
    "accessors" : [
        {
            "bufferView" : 0,
            "componentType" : 5126,
            "count" : 293,
            "max" : [
                2.5047249794006348,
                0.005709188990294933,
                2.504725217819214
            ],
            "min" : [
                -2.504725456237793,
                -0.005709115415811539,
                -2.504725217819214
            ],
            "type" : "VEC3"
        },
        {
            "bufferView" : 1,
            "componentType" : 5126,
            "count" : 293,
            "type" : "VEC3"
        },
        {
            "bufferView" : 2,
            "componentType" : 5126,
            "count" : 293,
            "type" : "VEC2"
        },
        {
            "bufferView" : 3,
            "componentType" : 5123,
            "count" : 768,
            "type" : "SCALAR"
        },
        {
            "bufferView" : 4,
            "componentType" : 5126,
            "count" : 128,
            "max" : [
                2.504725456237793,
                -0.005708878394216299,
                2.504725217819214
            ],
            "min" : [
                -2.5047249794006348,
                -0.005709188990294933,
                -2.504725217819214
            ],
            "type" : "VEC3"
        },
        {
            "bufferView" : 5,
            "componentType" : 5126,
            "count" : 128,
            "type" : "VEC3"
        },
        {
            "bufferView" : 6,
            "componentType" : 5126,
            "count" : 128,
            "type" : "VEC2"
        },
        {
            "bufferView" : 7,
            "componentType" : 5123,
            "count" : 384,
            "type" : "SCALAR"
        },
        {
            "bufferView" : 8,
            "componentType" : 5126,
            "count" : 260,
            "max" : [
                2.5259597301483154,
                0.005709188990294933,
                2.5259597301483154
            ],
            "min" : [
                -2.5259597301483154,
                -0.005709188990294933,
                -2.5259597301483154
            ],
            "type" : "VEC3"
        },
        {
            "bufferView" : 9,
            "componentType" : 5126,
            "count" : 260,
            "type" : "VEC3"
        },
        {
            "bufferView" : 10,
            "componentType" : 5126,
            "count" : 260,
            "type" : "VEC2"
        },
        {
            "bufferView" : 11,
            "componentType" : 5123,
            "count" : 768,
            "type" : "SCALAR"
        },
        {
            "bufferView" : 12,
            "componentType" : 5126,
            "count" : 514,
            "max" : [
                0.6239112615585327,
                0.009991811588406563,
                0.6239113211631775
            ],
            "min" : [
                -0.6239112615585327,
                -0.009991811588406563,
                -0.6239110827445984
            ],
            "type" : "VEC3"
        },
        {
            "bufferView" : 13,
            "componentType" : 5126,
            "count" : 514,
            "type" : "VEC3"
        },
        {
            "bufferView" : 14,
            "componentType" : 5126,
            "count" : 514,
            "type" : "VEC2"
        },
        {
            "bufferView" : 15,
            "componentType" : 5123,
            "count" : 1536,
            "type" : "SCALAR"
        },
        {
            "bufferView" : 16,
            "componentType" : 5126,
            "count" : 514,
            "max" : [
                0.7051659226417542,
                0.009991809725761414,
                0.7051659822463989
            ],
            "min" : [
                -0.7051659226417542,
                -0.009991809725761414,
                -0.7051657438278198
            ],
            "type" : "VEC3"
        },
        {
            "bufferView" : 17,
            "componentType" : 5126,
            "count" : 514,
            "type" : "VEC3"
        },
        {
            "bufferView" : 18,
            "componentType" : 5126,
            "count" : 514,
            "type" : "VEC2"
        },
        {
            "bufferView" : 19,
            "componentType" : 5123,
            "count" : 1536,
            "type" : "SCALAR"
        }
    ],
    "bufferViews" : [
        {
            "buffer" : 0,
            "byteLength" : 3516,
            "byteOffset" : 0
        },
        {
            "buffer" : 0,
            "byteLength" : 3516,
            "byteOffset" : 3516
        },
        {
            "buffer" : 0,
            "byteLength" : 2344,
            "byteOffset" : 7032
        },
        {
            "buffer" : 0,
            "byteLength" : 1536,
            "byteOffset" : 9376
        },
        {
            "buffer" : 0,
            "byteLength" : 1536,
            "byteOffset" : 10912
        },
        {
            "buffer" : 0,
            "byteLength" : 1536,
            "byteOffset" : 12448
        },
        {
            "buffer" : 0,
            "byteLength" : 1024,
            "byteOffset" : 13984
        },
        {
            "buffer" : 0,
            "byteLength" : 768,
            "byteOffset" : 15008
        },
        {
            "buffer" : 0,
            "byteLength" : 3120,
            "byteOffset" : 15776
        },
        {
            "buffer" : 0,
            "byteLength" : 3120,
            "byteOffset" : 18896
        },
        {
            "buffer" : 0,
            "byteLength" : 2080,
            "byteOffset" : 22016
        },
        {
            "buffer" : 0,
            "byteLength" : 1536,
            "byteOffset" : 24096
        },
        {
            "buffer" : 0,
            "byteLength" : 6168,
            "byteOffset" : 25632
        },
        {
            "buffer" : 0,
            "byteLength" : 6168,
            "byteOffset" : 31800
        },
        {
            "buffer" : 0,
            "byteLength" : 4112,
            "byteOffset" : 37968
        },
        {
            "buffer" : 0,
            "byteLength" : 3072,
            "byteOffset" : 42080
        },
        {
            "buffer" : 0,
            "byteLength" : 6168,
            "byteOffset" : 45152
        },
        {
            "buffer" : 0,
            "byteLength" : 6168,
            "byteOffset" : 51320
        },
        {
            "buffer" : 0,
            "byteLength" : 4112,
            "byteOffset" : 57488
        },
        {
            "buffer" : 0,
            "byteLength" : 3072,
            "byteOffset" : 61600
        }
    ],
    "buffers" : [
        {
            "byteLength" : 64672,
            "uri" : "data:application/octet-stream;base64,"
        }
    ]
}
